<svg width="309" height="76" viewBox="0 0 309 76" fill="none" xmlns="http://www.w3.org/2000/svg">
<path d="M0 16C0 7.16344 7.16344 0 16 0H293C301.837 0 309 7.16344 309 16V60C309 68.8366 301.837 76 293 76H16C7.16344 76 0 68.8366 0 60V16Z" fill="black"/>
<g clip-path="url(#clip0_7189_44216)">
<path d="M85.7106 39.9803V39.2809C85.7106 37.649 84.3805 36.3085 82.7613 36.2502H77.2675V41.8454H80.4481L80.5059 45.1675L80.159 45.2841C79.2337 45.6338 77.6723 45.9252 76.747 45.9252C72.4676 45.9252 69.0556 42.5448 69.0556 38.4649C69.0556 34.3851 72.5254 31.0047 76.747 31.0047C77.9614 31.0047 79.1759 31.2961 80.2746 31.8206L83.2239 27.0414C81.2577 25.9923 79.0024 25.4678 76.747 25.4678C69.287 25.4678 63.2148 31.2961 63.2148 38.5232C63.2148 45.7503 69.287 51.5787 76.747 51.5787C79.5228 51.5787 82.183 50.7627 84.4384 49.2473L85.6528 48.4314L85.7106 39.9803Z" fill="#FCFCFC"/>
<path d="M214.903 48.2571V39.2815C214.903 37.7079 213.63 36.4839 212.127 36.4256H206.807V41.6711H209.987V42.3122L210.045 44.8184V45.2847L209.582 45.4595C208.657 45.8092 207.096 46.1007 206.113 46.1007C201.775 46.1007 198.248 42.6619 198.248 38.4656C198.248 34.2692 201.775 30.8305 206.113 30.8305C207.327 30.8305 208.484 31.1219 209.582 31.5881L212.358 27.1003C210.45 26.1095 208.31 25.585 206.113 25.585C198.768 25.585 192.754 31.355 192.754 38.4656C192.754 45.5761 198.768 51.3461 206.113 51.3461C208.831 51.3461 211.491 50.5302 213.688 49.0731L214.903 48.2571Z" fill="#05F3FF"/>
<path d="M266.315 48.2571V39.2815C266.315 37.7079 265.043 36.4839 263.539 36.4256H258.219V41.6711H261.399V42.3122L261.457 44.8184V45.2847L260.994 45.4595C260.069 45.8092 258.508 46.1007 257.525 46.1007C253.187 46.1007 249.66 42.6619 249.66 38.4656C249.66 34.2692 253.187 30.8305 257.525 30.8305C258.739 30.8305 259.896 31.1219 260.994 31.5881L263.77 27.1003C261.862 26.1095 259.722 25.585 257.525 25.585C250.18 25.585 244.166 31.355 244.166 38.4656C244.166 45.5761 250.18 51.3461 257.525 51.3461C260.243 51.3461 262.903 50.5302 265.1 49.0731L266.315 48.2571Z" fill="#05F3FF"/>
<path d="M182.057 39.5134V41.8447L180.843 39.8631L171.995 25.5254H165.691V51.2866H171.706V37.8814V35.6667L172.92 37.5317L181.768 51.2866H188.014V25.5254H182.057V39.5134Z" fill="#05F3FF"/>
<path d="M123.534 36.0759V31.2967H135.736V25.585H120.527C118.85 25.585 117.52 26.8672 117.52 28.4408V48.4903C117.52 50.0639 118.85 51.3461 120.527 51.3461H135.736V45.6344H123.592V41.4963H135.736V36.1925H123.534V36.0759Z" fill="#FCFCFC"/>
<path d="M147.59 36.0759V31.2967H159.734V25.585H144.525C142.848 25.585 141.518 26.8672 141.518 28.4408V48.4903C141.518 50.0639 142.848 51.3461 144.525 51.3461H159.734V45.6344H147.59V41.4963H159.734V36.1925H147.59V36.0759Z" fill="#05F3FF"/>
<path d="M278.17 36.0759V31.2967H290.314V25.585H275.105C273.428 25.585 272.098 26.8672 272.098 28.4408V48.4903C272.098 50.0639 273.428 51.3461 275.105 51.3461H290.314V45.6344H278.17V41.4963H290.314V36.1925H278.17V36.0759Z" fill="#05F3FF"/>
<path d="M243.472 51.2867L233.93 26.866C233.468 25.7587 232.369 25.001 231.155 25.001H231.097C229.824 25.001 228.726 25.8169 228.321 26.9826L219.936 51.1701L226.181 51.2867L227.338 47.9646L227.511 47.4983H235.665L235.839 47.9063L237.169 51.2867H243.472ZM233.352 44.1762H228.61L228.957 43.3019L230.808 38.2313L231.386 36.5993L232.022 38.2313L233.988 43.3019L234.335 44.2344H233.352V44.1762Z" fill="#05F3FF"/>
<path fill-rule="evenodd" clip-rule="evenodd" d="M23.9748 19.7349C26.9838 16.9243 31.1584 15 35.8053 15H36.3836C41.0306 15 45.2052 16.9243 48.2141 19.7349C51.2019 22.5257 53.189 26.3392 53.189 30.2469V42.4281C53.189 43.574 52.2672 44.503 51.1302 44.503C49.9932 44.503 49.0715 43.574 49.0715 42.4281V30.2469C49.0715 27.7434 47.7623 24.9709 45.4152 22.7785C43.0893 20.6059 39.8907 19.1498 36.3836 19.1498H35.8053C32.2983 19.1498 29.0996 20.6059 26.7737 22.7785C24.4267 24.9709 23.1175 27.7434 23.1175 30.2469V40.8195H29.6754C30.8124 40.8195 31.7341 41.7484 31.7341 42.8944C31.7341 44.0403 30.8124 44.9692 29.6754 44.9692H21.0587C19.9217 44.9692 19 44.0403 19 42.8944V30.2469C19 26.3392 20.9871 22.5257 23.9748 19.7349Z" fill="#43FF6B"/>
<path fill-rule="evenodd" clip-rule="evenodd" d="M45.4752 31.8929C46.2338 32.7049 46.1957 33.983 45.39 34.7476L37.4673 42.2662C36.6616 43.0308 35.3935 42.9923 34.6348 42.1803C33.8761 41.3683 33.9143 40.0902 34.72 39.3256L42.6427 31.807C43.4484 31.0424 44.7165 31.0809 45.4752 31.8929Z" fill="#05F3FF"/>
<path fill-rule="evenodd" clip-rule="evenodd" d="M35.6913 22.457C36.798 22.457 37.6951 23.3612 37.6951 24.4765V50.3543C37.6951 51.4696 36.798 52.3738 35.6913 52.3738C34.5846 52.3738 33.6875 51.4696 33.6875 50.3543V24.4765C33.6875 23.3612 34.5846 22.457 35.6913 22.457Z" fill="#05F3FF"/>
<path fill-rule="evenodd" clip-rule="evenodd" d="M35.6914 52.374C34.4346 52.374 33.4158 53.4008 33.4158 54.6674C33.4158 55.9341 34.4346 56.9609 35.6914 56.9609C36.9482 56.9609 37.967 55.9341 37.967 54.6674C37.967 53.4008 36.9482 52.374 35.6914 52.374ZM29.4082 54.6674C29.4082 51.1701 32.2213 48.335 35.6914 48.335C39.1615 48.335 41.9746 51.1701 41.9746 54.6674C41.9746 58.1648 39.1615 60.9999 35.6914 60.9999C32.2213 60.9999 29.4082 58.1648 29.4082 54.6674Z" fill="#05F3FF"/>
<path d="M96.5854 43.3899L105.451 51.2873H114.449L103.103 41.181C107.11 41.0761 110.326 38.2668 110.979 34.4784C111.06 34.2103 111.101 33.9247 111.101 33.6275V33.0446C111.101 32.7474 111.06 32.4618 110.979 32.1937C110.303 28.2771 106.925 25.293 102.871 25.293H93.6071C91.9648 25.293 90.6289 26.6393 90.6289 28.2946V51.1765H96.5854V43.3957V43.3899ZM96.5854 31.2612H102.871C104.028 31.2612 105.127 32.3744 105.127 33.8431C105.127 35.3119 104.086 36.1919 102.871 36.1919H96.5854V31.2612Z" fill="#FCFCFC"/>
</g>
<defs>
<clipPath id="clip0_7189_44216">
<rect width="271" height="46" fill="white" transform="translate(19 15)"/>
</clipPath>
</defs>
</svg>
