<svg width="16" height="16" viewBox="0 0 16 16" fill="none" xmlns="http://www.w3.org/2000/svg">
<g clip-path="url(#clip0_5489_1802)">
<path d="M10.59 2L14 5.41V13.08L13.09 13.99H2V2H10.59ZM11 1H1V15H13.5L15 13.5V5L11 1Z" fill="#4FA143"/>
<path d="M10 5H3V6H10V5Z" fill="#4FA143"/>
<path d="M4 2H3V6H4V2Z" fill="#4FA143"/>
<path d="M8 3H7V4H8V3Z" fill="#4FA143"/>
<path d="M10 2H9V6H10V2Z" fill="#4FA143"/>
<path d="M11 16C13.7614 16 16 13.7614 16 11C16 8.23858 13.7614 6 11 6C8.23858 6 6 8.23858 6 11C6 13.7614 8.23858 16 11 16Z" fill="#4FA143"/>
<path d="M11 7C9.34434 7 8 7.5283 8 8.33962V13.6604C8 14.4528 9.34434 15 11 15C12.6557 15 14 14.4717 14 13.6604V8.33962C14 7.54717 12.6557 7 11 7ZM13 13C13 13 12.5 13.5 11 13.5C9.5 13.5 9.0566 13.0755 9 13V12C9 12 9.5 12.5 11 12.5C12.5 12.5 13 12 13 12V13ZM13 10C13 10 12.5 10.535 11 10.5175C9.5 10.5 9.0566 10.0755 9 10V9C9 9 9.5 9.5 11 9.5C12.5 9.5 13 9 13 9V10Z" fill="#F1F1F1"/>
</g>
<defs>
<clipPath id="clip0_5489_1802">
<rect width="15" height="15" fill="white" transform="translate(1 1)"/>
</clipPath>
</defs>
</svg>
