<svg width="32" height="32" viewBox="0 0 32 32" fill="none" xmlns="http://www.w3.org/2000/svg">
<g clip-path="url(#clip0_3808_2440)">
<path d="M16 5C22.89 5 26.68 6.99 27 7.77V24.23C26.68 25.01 22.89 27 16 27C9.11 27 5.32 25.01 5 24.23V7.77C5.32 6.99 9.11 5 16 5ZM16 3C8.82 3 3 5.12 3 7.74V24.27C3 26.89 8.82 29.01 16 29.01C23.18 29.01 29 26.89 29 24.27V7.74C29 5.12 23.18 3 16 3Z" fill="#3387C5"/>
<path d="M16 5C23.15 5 27 7.48 27 8.5C27 9.52 23.15 12 16 12C8.85 12 5 9.52 5 8.5C5 7.48 8.85 5 16 5ZM16 3C8.82 3 3 5.46 3 8.5C3 11.54 8.82 14 16 14C23.18 14 29 11.54 29 8.5C29 5.46 23.18 3 16 3Z" fill="#3387C5"/>
<path d="M28.3702 17.8096C28.0802 18.3996 27.6502 18.8896 27.0902 19.2496C27.0902 19.2496 27.0902 19.2596 27.1002 19.2596C26.5202 20.1196 22.7602 21.9996 16.0002 21.9996C9.24023 21.9996 5.47023 20.1296 4.90023 19.2596C4.30023 18.9696 3.84023 18.5096 3.50023 17.9696C3.18023 18.3796 2.99023 18.8196 2.99023 19.2696C2.99023 21.8896 8.81023 24.0096 15.9902 24.0096C23.1702 24.0096 28.9902 21.8896 28.9902 19.2696C28.9902 18.7596 28.7702 18.2796 28.3602 17.8196L28.3702 17.8096Z" fill="#3387C5"/>
<path d="M28.3702 12.8096C28.0802 13.3996 27.6502 13.8896 27.0902 14.2496C27.0902 14.2496 27.0902 14.2596 27.1002 14.2596C26.5202 15.1196 22.7602 16.9996 16.0002 16.9996C9.24023 16.9996 5.47023 15.1296 4.90023 14.2596C4.30023 13.9696 3.84023 13.5096 3.50023 12.9696C3.18023 13.3796 2.99023 13.8196 2.99023 14.2696C2.99023 16.8896 8.81023 19.0096 15.9902 19.0096C23.1702 19.0096 28.9902 16.8896 28.9902 14.2696C28.9902 13.7596 28.7702 13.2796 28.3602 12.8196L28.3702 12.8096Z" fill="#3387C5"/>
</g>
<defs>
<clipPath id="clip0_3808_2440">
<rect width="26" height="26" fill="white" transform="translate(3 3)"/>
</clipPath>
</defs>
</svg>
