<?xml version="1.0" encoding="UTF-8"?>
<svg id="Layer_1" data-name="Layer 1" xmlns="http://www.w3.org/2000/svg" viewBox="0 0 16 16">
  <g id="Layer_1-2" data-name="Layer 1">
    <g>
      <path d="M9.71.29c-.67-.11-1.38-.14-2.05-.04-.39.07-.78.25-1.1.42-1.1-.35-2.34-.57-3.47-.35-.81.14-1.59.64-2.02,1.38-.53.88-.64,1.95-.57,2.97.14,1.13.42,2.27.74,3.36.28.96.6,1.91,1.13,2.76.28.46.71.96,1.27,1.1.46.11.92-.04,1.27-.32.18.18.39.32.64.39.67.25,1.42.25,2.09-.04.04.92,0,1.88.35,2.73.14.42.35.81.74,1.06.42.28.92.32,1.42.25.42-.07.88-.21,1.24-.42.39-.25.71-.6.88-1.03.42-.96.46-1.98.5-3.01.99.07,2.02-.18,2.76-.85.28-.25.53-.64.42-1.03-.11-.35-.5-.6-.85-.57-.39.04-.74.14-1.13.14.85-1.49,1.52-3.08,1.81-4.74.11-.71.21-1.42,0-2.12-.11-.39-.39-.71-.67-.99-.64-.64-1.52-1.06-2.41-1.24-1.03-.21-2.05-.11-3.01.18Z" fill="#fff"/>
      <path d="M9.67.71c1.06-.32,2.19-.42,3.26-.11.85.25,1.63.74,2.16,1.45.21.28.28.67.28,1.03.04.64-.11,1.27-.25,1.88-.39,1.63-1.1,3.15-1.98,4.57.5.21,1.06.11,1.56.04.21-.04.5-.11.64.11s0,.46-.14.6c-.74.74-1.88.92-2.87.74-.11.88-.21,1.77-.35,2.69-.07.5-.25,1.03-.64,1.34-.35.32-.85.46-1.31.53s-1.03.04-1.38-.32c-.39-.35-.64-.88-.67-1.38-.11-.88-.11-1.81-.11-2.69-.42.35-.99.57-1.56.53-.39-.04-.85-.11-1.13-.39-.18-.14-.14-.42.04-.57.32-.25.74-.21,1.1-.35.28-.07.42-.35.57-.53-.32-.04-.64-.11-.88-.25-.42.46-.85.96-1.24,1.42-.25.28-.57.53-.96.46-.42-.07-.74-.39-.99-.71-.46-.67-.78-1.45-1.03-2.23-.39-1.27-.71-2.55-.88-3.86-.11-.99,0-2.05.57-2.87.46-.67,1.24-1.03,2.02-1.1,1.06-.11,2.12.11,3.11.46.81-.53,1.88-.64,2.83-.42.11-.07.18-.04.25-.07ZM10.45,1c.21.14.42.25.64.39.85.57,1.52,1.38,1.91,2.3.11.28.25.53.21.85,0,.6-.21,1.2-.14,1.81.07.64.21,1.31.04,1.95-.04.21-.18.42-.25.64,0,.04.04.11.04.11.07-.11.14-.21.21-.32.67-1.1,1.17-2.3,1.52-3.54.18-.67.32-1.38.32-2.09,0-.28-.04-.6-.21-.85-.39-.5-.92-.88-1.52-1.13-.88-.28-1.84-.32-2.76-.11ZM7.98,1.07c-.67.07-1.31.46-1.7.99-.53.74-.78,1.66-.85,2.55.57-.25,1.17-.5,1.81-.35.39.11.71.46.78.85.18.81.28,1.63.11,2.44-.14.64-.53,1.2-.67,1.88.18,0,.35.04.5.11.32.18.5.53.46.88-.04.88-.04,1.77.04,2.65.04.35.04.74.14,1.1.14.42.42.85.88.96.5.07.99-.07,1.45-.28.42-.21.64-.71.71-1.17.14-.96.25-1.91.35-2.87.04-.35-.04-.71.18-1.03.11-.21.32-.28.5-.39-.14-.21-.32-.42-.46-.64-.46-.99-1.1-1.91-1.31-2.97-.07-.46-.04-.99.35-1.31.42-.35.99-.32,1.52-.32-.32-.88-.88-1.66-1.59-2.23-.92-.67-2.09-.99-3.19-.85ZM3.27,1.14c-.6.11-1.2.46-1.52,1.03-.42.74-.46,1.59-.39,2.41.14,1.06.39,2.12.71,3.19.28.88.57,1.77,1.06,2.55.18.28.39.57.71.67.28.07.5-.18.67-.35.35-.46.78-.88,1.17-1.34-.57-.5-.85-1.27-.78-2.05.07-.57.11-1.17.07-1.77-.07-.81.07-1.66.32-2.48.18-.6.5-1.13.92-1.59-.96-.21-1.98-.42-2.94-.25ZM11.52,4.78c-.28.21-.28.64-.21.96.21,1.03.81,1.88,1.24,2.8.35-.67.14-1.45.07-2.19-.07-.6.11-1.17.14-1.73-.39,0-.85-.07-1.24.18ZM5.39,5.17c0,.5.04.99,0,1.45-.04.42-.14.85-.04,1.27.14.78.81,1.42,1.63,1.42.11-.39.25-.78.42-1.13.5-.96.39-2.05.14-3.04-.07-.28-.32-.5-.6-.5-.57,0-1.1.25-1.56.53ZM12.58,9.95c-.14.14-.14.35-.14.53.32.11.67.11,1.03.07.5-.07,1.03-.21,1.42-.6-.6.07-1.27.21-1.88-.07-.14-.07-.32,0-.42.07ZM6.74,10.66c-.35.21-.78.18-1.1.35.71.35,1.73.25,2.23-.42.25-.25,0-.74-.32-.71-.35.21-.5.6-.81.78Z" fill="#fff"/>
      <path d="M11.66,4.93c.21-.14.5-.14.71-.07,0,.28-.35.5-.6.35-.07-.04-.21-.18-.11-.28Z" fill="#fff"/>
      <path d="M6.67,4.96c.21-.07.46-.04.64.11.11.11,0,.28-.11.32-.25.18-.64,0-.67-.28,0-.07.07-.14.14-.14Z" fill="#fff"/>
      <path d="M10.45,1c.88-.21,1.88-.18,2.73.14.6.21,1.13.64,1.52,1.13.21.25.21.57.21.85,0,.71-.14,1.38-.32,2.09-.35,1.24-.85,2.44-1.52,3.54-.07.11-.14.21-.21.32,0-.04-.04-.11-.04-.11.07-.21.21-.42.25-.64.18-.64.04-1.31-.04-1.95-.07-.6.14-1.2.14-1.81.04-.28-.11-.57-.21-.85-.42-.92-1.06-1.73-1.91-2.3-.14-.18-.39-.28-.6-.42Z" fill="#326690"/>
      <path d="M7.98,1.07c1.1-.14,2.27.18,3.15.85.71.57,1.31,1.34,1.59,2.23-.5,0-1.1-.04-1.52.32-.39.32-.42.85-.35,1.31.21,1.1.85,2.02,1.31,2.97.11.25.28.42.46.64-.21.11-.39.18-.5.39-.18.32-.11.67-.18,1.03-.11.96-.21,1.91-.35,2.87-.07.46-.28.96-.71,1.17-.42.21-.96.35-1.45.28-.46-.07-.78-.53-.88-.96-.11-.35-.11-.74-.14-1.1-.04-.88-.04-1.77-.04-2.65.04-.35-.14-.71-.46-.88-.14-.07-.32-.11-.5-.11.14-.64.53-1.2.67-1.88.18-.81.07-1.63-.11-2.44-.07-.39-.39-.74-.78-.85-.64-.14-1.24.07-1.81.35.07-.88.32-1.81.85-2.55.42-.53,1.06-.88,1.73-.99Z" fill="#326690"/>
      <path d="M3.27,1.14c.99-.18,1.98,0,2.94.28-.42.46-.74.99-.92,1.59-.25.78-.35,1.63-.32,2.48.04.6.04,1.17-.07,1.77-.11.74.21,1.52.78,2.05-.39.46-.78.88-1.17,1.34-.18.21-.39.42-.67.35-.32-.11-.53-.39-.71-.67-.5-.78-.78-1.66-1.06-2.55-.32-1.03-.57-2.09-.71-3.19-.07-.81-.04-1.7.39-2.41.32-.57.88-.92,1.52-1.06Z" fill="#326690"/>
      <path d="M11.52,4.78c.35-.25.85-.21,1.24-.18-.04.57-.21,1.13-.14,1.73.07.71.25,1.49-.07,2.19-.46-.92-1.06-1.77-1.24-2.8-.04-.32-.04-.71.21-.96ZM11.66,4.93c-.11.11,0,.25.11.28.25.14.6-.07.6-.35-.21-.07-.5-.07-.71.07Z" fill="#326690"/>
      <path d="M5.39,5.17c.46-.28.99-.53,1.52-.5.28,0,.53.21.6.5.25.99.32,2.09-.14,3.04-.18.35-.32.74-.42,1.13-.81,0-1.49-.67-1.63-1.42-.11-.42.04-.85.04-1.27.07-.53.04-.99.04-1.49ZM6.67,4.96c-.07.04-.14.07-.14.14.04.28.42.46.67.28.11-.07.21-.21.11-.32-.18-.14-.42-.18-.64-.11Z" fill="#326690"/>
      <path d="M12.58,9.95c.11-.07.28-.18.42-.07.57.32,1.24.14,1.88.07-.39.35-.88.53-1.42.6-.35.04-.71.07-1.03-.07,0-.18,0-.39.14-.53Z" fill="#326690"/>
      <path d="M6.74,10.66c.32-.18.46-.57.78-.78.32-.04.6.46.32.71-.5.67-1.52.81-2.23.42.35-.14.78-.14,1.13-.35Z" fill="#326690"/>
      <path d="M9.71.29c.96-.25,1.98-.35,2.97-.18.88.14,1.73.6,2.41,1.24.28.28.57.6.67.99.21.71.11,1.42,0,2.12-.32,1.66-.96,3.26-1.81,4.74.39,0,.74-.11,1.13-.14.35-.04.78.21.85.57.11.39-.14.78-.42,1.03-.78.67-1.84.88-2.8.85-.07,1.03-.07,2.05-.5,3.01-.21.42-.5.78-.88,1.03-.39.25-.81.35-1.24.42-.46.07-.99.04-1.42-.25-.39-.25-.6-.64-.74-1.06-.32-.88-.28-1.81-.35-2.73-.67.28-1.42.28-2.09.04-.25-.07-.46-.21-.64-.39-.35.28-.81.42-1.27.32-.57-.14-.96-.64-1.27-1.1-.53-.85-.85-1.81-1.13-2.76-.32-1.1-.6-2.19-.74-3.36-.07-1.03,0-2.09.57-2.97.42-.71,1.2-1.2,2.02-1.38,1.17-.25,2.37,0,3.47.32.35-.18.71-.35,1.1-.42.74-.11,1.45-.04,2.12.07ZM9.67.71c-.07.04-.18-.04-.25-.04-.96-.21-2.02-.11-2.83.42-.99-.35-2.05-.57-3.11-.46-.78.07-1.59.46-2.02,1.1-.57.85-.64,1.91-.57,2.87.18,1.31.5,2.58.88,3.82.28.78.57,1.56,1.03,2.23.25.32.57.67.99.71.39.04.71-.18.96-.46.42-.5.81-.96,1.24-1.42.28.14.6.21.88.25-.18.21-.32.46-.57.53-.35.14-.78.11-1.1.35-.18.14-.21.42-.04.57.28.28.74.35,1.13.39.57.04,1.13-.14,1.56-.53,0,.88,0,1.81.11,2.69.04.53.28,1.06.67,1.38.35.32.92.39,1.38.32.46-.11.96-.25,1.31-.53.39-.35.57-.85.64-1.34.14-.88.25-1.77.35-2.69.99.18,2.12-.04,2.87-.74.14-.14.32-.42.14-.6-.14-.18-.42-.14-.64-.11-.5.11-1.06.21-1.56-.04.88-1.42,1.59-2.94,1.98-4.57.14-.6.25-1.24.25-1.88-.04-.35-.07-.74-.28-1.03-.53-.71-1.31-1.2-2.16-1.45-1.03-.14-2.19-.07-3.26.25Z"/>
    </g>
  </g>
</svg>