<svg width="16" height="16" viewBox="0 0 16 16" fill="none" xmlns="http://www.w3.org/2000/svg">
<g clip-path="url(#clip0_6208_1838)">
<g clip-path="url(#clip1_6208_1838)">
<path d="M16 0H14V1H16V0ZM12 0H10V1H12V0ZM8 0H6V1H8V0ZM4 0H2V1H4V0ZM1 0H0V2H1V0ZM1 4H0V6H1V4ZM1 8H0V10H1V8ZM1 12H0V14H1V12ZM2 15H0V16H2V15ZM6 15H4V16H6V15ZM10 15H8V16H10V15ZM14 15H12V16H14V15ZM16 14H15V16H16V14ZM16 10H15V12H16V10ZM16 6H15V8H16V6ZM16 2H15V4H16V2Z" fill="#3387C5"/>
<path d="M6 2C5.08 2 4 2.86 4 3.8V11H2V12.5C2 13.44 2.58 14 3.5 14H11C12 14 13 13 13 12V4.32C13 3.67 13.35 3.07 14 3.01V2H6ZM3 12.34V12H9C9 12.39 9.15 12.73 9.39 13H3.78C3.35 13 3 12.7 3 12.34ZM12 12C12 12.69 11.69 13 11 13C10.31 13 10 12.69 10 12V11H5V4.25C5 3.56 5.56 3 6.25 3H12.27C12.11 3.25 12 3.52 12 3.8V12Z" fill="#3387C5"/>
</g>
</g>
<defs>
<clipPath id="clip0_6208_1838">
<rect width="16" height="16" fill="white"/>
</clipPath>
<clipPath id="clip1_6208_1838">
<rect width="16" height="16" fill="white"/>
</clipPath>
</defs>
</svg>
