<svg width="16" height="16" viewBox="0 0 16 16" fill="none" xmlns="http://www.w3.org/2000/svg">
<path d="M13 13V14H3V13H2V15H14V13H13Z" fill="#3387C5"/>
<path d="M3 6V2H10V5H13V6H14V4.59L10.41 1H2V6H3Z" fill="#3387C5"/>
<path d="M7 12H5V7H6V11H7V12Z" fill="#3388C6"/>
<path d="M11.0098 10.4927C11.0098 10.9764 10.8736 11.3476 10.5965 11.6063C10.3242 11.865 9.95952 12 9.51706 12C9.0746 12 8.68075 11.8538 8.41333 11.5669C8.14105 11.2745 8.00977 10.8751 8.00977 10.3633H9.01139C9.01139 10.5489 9.05028 10.7064 9.13294 10.8358C9.22532 10.982 9.35174 11.0551 9.5122 11.0551C9.67265 11.0551 9.78448 10.9989 9.87686 10.892C9.96925 10.7852 10.013 10.6445 10.013 10.4814C10.013 10.4252 10.0033 10.3746 9.9887 10.3296C9.94007 10.2002 9.74558 10.0427 9.41009 9.85714C8.98221 9.62655 8.69534 9.44657 8.54947 9.31721C8.25288 9.04724 8.10701 8.73228 8.10701 8.37233C8.10701 7.94488 8.25774 7.6018 8.5592 7.34871C8.83148 7.11811 9.16698 7 9.57054 7C9.97411 7 10.3096 7.12936 10.5624 7.38245C10.8201 7.65242 10.9514 8.00675 10.9514 8.44544H9.97897C9.97897 8.28234 9.94007 8.15298 9.86714 8.05174C9.79421 7.95051 9.68238 7.89989 9.54137 7.89989C9.41981 7.89989 9.31771 7.93363 9.23505 8.00113C9.14267 8.07424 9.09404 8.17548 9.09404 8.30484C9.09404 8.50169 9.23505 8.69291 9.51706 8.88976C9.79907 9.05287 10.0762 9.2216 10.3534 9.39033C10.6791 9.60967 10.8833 9.84027 10.9563 10.0821C10.9952 10.2002 11.0098 10.3465 11.0098 10.5096V10.4927Z" fill="#3388C6"/>
<path d="M4 12H3L0 7H1L4 12Z" fill="#3388C6"/>
<path d="M16 12H15L12 7H13L16 12Z" fill="#3388C6"/>
<path d="M0 12H1L4 7H3L0 12Z" fill="#3388C6"/>
<path d="M12 12H13L16 7H15L12 12Z" fill="#3388C6"/>
</svg>
